<svg width="24" height="23" viewBox="0 0 24 23" fill="none" xmlns="http://www.w3.org/2000/svg">
<path d="M10.677 0.920915C10.9868 0.0216435 12.2588 0.0219778 12.5681 0.921411L14.6905 7.09211C14.8268 7.4886 15.196 7.75791 15.6152 7.76666L22.1089 7.90213C23.0544 7.92186 23.4468 9.12148 22.6957 9.69612L17.5085 13.6648C17.1785 13.9174 17.039 14.3478 17.1582 14.7459L19.0394 21.0282C19.3116 21.9374 18.2828 22.679 17.5064 22.1332L12.1981 18.4023C11.8532 18.1598 11.3933 18.1598 11.0483 18.4021L5.73593 22.1334C4.95922 22.679 3.93059 21.9369 4.20334 21.0277L6.08782 14.7464C6.20734 14.348 6.06779 13.9173 5.73738 13.6646L0.547078 9.69629C-0.204306 9.12181 0.187969 7.92183 1.1336 7.9021L7.62613 7.76665C8.04513 7.75791 8.41423 7.48883 8.55074 7.0926L10.677 0.920915Z" fill="black"/>
</svg>
