<svg width="25" height="23" viewBox="0 0 25 23" fill="none" xmlns="http://www.w3.org/2000/svg">
<path d="M11.7934 0.760733C12.1126 -0.117168 13.3543 -0.116828 13.6731 0.761247L15.977 7.10711C16.118 7.49575 16.4838 7.75749 16.8972 7.76566L23.8322 7.90273C24.7913 7.92168 25.176 9.14923 24.3993 9.7122L18.9513 13.6611C18.6026 13.9139 18.4549 14.3615 18.5847 14.7722L20.58 21.085C20.8645 21.9851 19.858 22.7419 19.0722 22.2187L13.288 18.3672C12.9524 18.1437 12.5154 18.1436 12.1798 18.367L6.39114 22.2188C5.6051 22.7419 4.59878 21.9845 4.88383 21.0844L6.88263 14.7727C7.01275 14.3618 6.86496 13.9138 6.5159 13.6609L1.06458 9.71237C0.287567 9.14956 0.672187 7.92165 1.63143 7.90269L8.56521 7.76565C8.9784 7.75749 9.344 7.49599 9.48524 7.10761L11.7934 0.760733Z" fill="black"/>
</svg>
